<svg version="1.1" viewBox="0.0 0.0 400.0 400.0" fill="none" stroke="none" stroke-linecap="square" stroke-miterlimit="10" xmlns:xlink="http://www.w3.org/1999/xlink" xmlns="http://www.w3.org/2000/svg"><clipPath id="p.0"><path d="m0 0l400.0 0l0 400.0l-400.0 0l0 -400.0z" clip-rule="nonzero"/></clipPath><g clip-path="url(#p.0)"><path fill="#4a86e8" d="m0 0l400.0 0l0 400.0l-400.0 0z" fill-rule="evenodd"/><path fill="#000000" fill-opacity="0.0" d="m38.913387 52.94488l322.17322 0l0 294.11023l-322.17322 0z" fill-rule="evenodd"/><path fill="#ffffff" d="m210.71027 279.5449l-35.640625 0l-14.15625 -36.859375l-64.85938 0l-13.390625 36.859375l-34.749996 0l63.187496 -162.25l34.640633 0l64.96875 162.25zm-60.3125 -64.1875l-22.359375 -60.203125l-21.906258 60.203125l44.265633 0zm154.82452 64.1875l0 -17.59375q-6.421875 9.40625 -16.87503 14.828125q-10.453125 5.421875 -22.078125 5.421875q-11.843735 0 -21.249985 -5.203125q-9.40625 -5.203125 -13.609375 -14.609375q-4.203125 -9.40625 -4.203125 -26.0l0 -74.375l31.093735 0l0 54.0q0 24.796875 1.71875 30.390625q1.71875 5.578125 6.25 8.84375q4.53125 3.265625 11.515625 3.265625q7.96875 0 14.265625 -4.359375q6.3125305 -4.375 8.6406555 -10.84375q2.328125 -6.484375 2.328125 -31.71875l0 -49.578125l31.09375 0l0 117.53125l-28.890625 0z" fill-rule="nonzero"/></g></svg>