<?xml version="1.0" encoding="UTF-8"?>
<svg version="1.1" xmlns="http://www.w3.org/2000/svg" width="1920" height="1920">
<path d="M0 0 C633.6 0 1267.2 0 1920 0 C1920 633.6 1920 1267.2 1920 1920 C1286.4 1920 652.8 1920 0 1920 C0 1286.4 0 652.8 0 0 Z " fill="#FEFEFE" transform="translate(0,0)"/>
<path d="M0 0 C3.37316844 2.03196843 6.18281275 4.25476449 9 7 C10.06154297 8.0209375 10.06154297 8.0209375 11.14453125 9.0625 C18.11746637 16.30710791 23.1319278 25.43124463 23.12025452 35.65704346 C23.12231651 37.05362686 23.12231651 37.05362686 23.12442017 38.47842407 C23.12082489 39.49262421 23.11722961 40.50682434 23.11352539 41.55175781 C23.11367142 42.62523468 23.11381744 43.69871155 23.1139679 44.80471802 C23.11327103 48.35420754 23.10548914 51.90364464 23.09765625 55.453125 C23.09579127 57.91363496 23.09436774 60.3741453 23.09336853 62.83465576 C23.08954967 69.31194076 23.07972472 75.78920335 23.06866455 82.26647949 C23.0584369 88.87556658 23.053868 95.48465728 23.04882812 102.09375 C23.03810192 115.06250956 23.02122515 128.03125359 23 141 C23.7805928 141.14790985 24.56118561 141.2958197 25.36543274 141.44821167 C29.5995961 142.33502218 33.29962227 144.26954282 37.1875 146.125 C38.03812012 146.53024902 38.88874023 146.93549805 39.76513672 147.35302734 C45.96838176 150.36976335 51.57593144 153.72101258 57 158 C57.71671875 158.52851562 58.4334375 159.05703125 59.171875 159.6015625 C65.86059148 164.60624043 71.92054304 170.28821765 78 176 C78.63808594 176.57234375 79.27617188 177.1446875 79.93359375 177.734375 C90.69249273 187.74505319 98.25527535 201.10577181 105 214 C105.3417627 214.63679687 105.68352539 215.27359375 106.03564453 215.9296875 C123.4017078 249.16459779 122.08334317 289.25705762 111.70288086 324.19726562 C107.62505476 337.07891504 101.61629208 350.06138496 93.1015625 360.6328125 C90.46796249 364.85244672 90.99650971 366.22925693 92 371 C92.72441496 373.24372759 93.51903304 375.4656351 94.37109375 377.6640625 C94.72775871 378.59649277 94.72775871 378.59649277 95.09162903 379.54776001 C95.60222115 380.88180226 96.11582974 382.21469327 96.63220215 383.54650879 C98.01508666 387.11576368 99.37380154 390.69414951 100.73046875 394.2734375 C101.14548141 395.36748901 101.14548141 395.36748901 101.56887817 396.48364258 C104.28640939 403.68728082 106.78211207 410.95736194 109.25 418.25 C112.5937795 428.09866172 116.20406091 437.77199237 120.13671875 447.3984375 C124.89887933 459.07325271 129.01342163 470.9590845 132.9375 482.9375 C135.63568826 491.157185 138.57940339 499.20592479 141.85693359 507.21069336 C149.21126953 525.22542649 155.63247458 543.61827567 162 562 C164.31 568.6 166.62 575.2 169 582 C191.275 582.495 191.275 582.495 214 583 C214.33 581.02 214.66 579.04 215 577 C221.00240252 565.07997465 229.81965279 556.24148903 242.48828125 551.8828125 C253.33745367 548.87451442 264.57691687 549.44189952 275.75 549.53344727 C279.62283028 549.56248373 283.49429413 549.55401027 287.3671875 549.54101562 C289.86198573 549.54725247 292.3567797 549.55564298 294.8515625 549.56640625 C295.99251373 549.56347061 297.13346497 549.56053497 298.30899048 549.55751038 C314.19073856 549.74146518 327.17136077 554.5404764 338.76953125 565.51171875 C349.56343596 577.55325518 349.82935818 592.07103173 349.18652344 607.4140625 C348.43348668 617.85406949 344.19569299 625.51383867 337 633 C336.36964844 633.65871094 335.73929688 634.31742188 335.08984375 634.99609375 C327.37757771 642.35996173 316.32180806 647.20169122 305.65014648 647.30639648 C303.79177406 647.33037758 303.79177406 647.33037758 301.89585876 647.35484314 C300.55427467 647.3612241 299.21268555 647.3666155 297.87109375 647.37109375 C296.47591566 647.38007738 295.08073846 647.38919949 293.68556213 647.39845276 C290.76292596 647.4149062 287.84040375 647.42263524 284.91772461 647.42553711 C281.20818779 647.43089435 277.49975373 647.46847729 273.79052639 647.51428127 C270.90678712 647.54432819 268.02330349 647.55126669 265.13942146 647.55226326 C263.11842798 647.55841172 261.09754656 647.58774422 259.07676697 647.61778259 C244.89580239 647.54943254 234.16939025 642.93786907 224.0703125 633.125 C219.28590352 628.03258186 214 621.23186405 214 614 C203.11 614 192.22 614 181 614 C187.5614241 631.76203507 187.5614241 631.76203507 194.1875 649.5 C195.12558487 651.99978298 196.06317135 654.49974657 197 657 C197.29003906 657.77311523 197.58007812 658.54623047 197.87890625 659.34277344 C204.43565168 676.85257583 204.43565168 676.85257583 206.296875 683.69921875 C208.27626983 690.1762385 210.95215204 696.45455064 213.41358948 702.75917053 C218.28793194 715.24679775 223.06801776 727.738438 227.4140625 740.421875 C229.3699486 746.12020314 231.48151355 751.75958972 233.58276367 757.40551758 C235.18332194 761.72479495 236.7057268 766.05428278 238.125 770.4375 C239.36285937 774.22942362 240.75038283 777.89228297 242.3125 781.5625 C247.44030563 793.6167877 251.72788207 806.00753373 255.8203125 818.4453125 C258.81632806 827.47304149 262.09102042 836.31971774 265.81640625 845.0703125 C267.40030684 848.99085853 268.67371168 852.98968556 269.97265625 857.01171875 C271.00418387 860.01216981 272.18506815 862.89796233 273.4375 865.8125 C275.80993154 871.38663246 277.73597251 877.04473664 279.6171875 882.80078125 C283.31675113 894.10379265 287.17193079 905.33926884 291.87890625 916.265625 C293.45859073 920.11851397 294.74202074 924.05022428 296.0078125 928.015625 C296.9978471 930.99352434 298.08888106 933.92441408 299.19476318 936.86087036 C300.40140538 940.06634239 301.59284254 943.27745997 302.78515625 946.48828125 C303.042435 947.18081497 303.29971375 947.87334869 303.56478882 948.58686829 C305.86203225 954.77109515 308.15776963 960.95588151 310.45329285 967.14074707 C312.25582366 971.99695897 314.06078945 976.8522566 315.8671875 981.70703125 C316.72400717 984.01300269 317.58078104 986.31899114 318.4375 988.625 C318.81334229 989.63344971 319.18918457 990.64189941 319.57641602 991.6809082 C321.7128494 997.43726533 323.78286393 1003.21322864 325.8125 1009.0078125 C328.9460759 1017.93825768 332.25189713 1026.80123432 335.58666992 1035.65820312 C336.56666903 1038.2610729 337.54428205 1040.86482909 338.52148438 1043.46875 C338.84076401 1044.3181868 339.16004364 1045.1676236 339.48899841 1046.0428009 C340.11829462 1047.71799695 340.74629938 1049.39367878 341.37294006 1051.06987 C342.72274939 1054.66874814 344.08849456 1058.25381813 345.56225586 1061.80395508 C348.15539166 1068.1323481 349.75728689 1073.33402792 349.4375 1080.1875 C349.43169922 1080.90357422 349.42589844 1081.61964844 349.41992188 1082.35742188 C349.29257697 1088.05737997 348.23237936 1093.44796311 347 1099 C346.84990479 1099.73081787 346.69980957 1100.46163574 346.54516602 1101.21459961 C342.15414813 1122.33604242 333.51069446 1142.14034525 324.3125 1161.5625 C323.80267578 1162.64926025 323.29285156 1163.73602051 322.76757812 1164.85571289 C317.90879366 1174.85795198 311.90518843 1186.66948305 301 1191 C295.69127904 1191.93900775 291.5305071 1191.7085681 286.625 1189.4375 C279.52399101 1182.84370593 277.12584016 1175.41527953 274.1875 1166.375 C273.32116087 1163.77269619 272.44586313 1161.1734356 271.5703125 1158.57421875 C271.35413773 1157.92920914 271.13796295 1157.28419952 270.91523743 1156.61964417 C268.13437171 1148.35908153 264.98570829 1140.24323264 261.82177734 1132.1237793 C261.03786245 1130.0978507 260.27116031 1128.06646231 259.51171875 1126.03125 C258.43031527 1123.13328941 257.32387182 1120.24625692 256.203125 1117.36328125 C252.34870419 1107.41521405 248.70547989 1097.43698562 245.43457031 1087.28051758 C243.53147954 1081.41148395 241.34157009 1075.70713849 239 1070 C234.53285362 1058.95995124 230.51068506 1047.83183275 226.84082031 1036.49951172 C225.05421567 1031.01340014 223.11838717 1025.64119499 220.93530273 1020.30029297 C219.59202628 1016.99662533 218.36228705 1013.65736923 217.125 1010.3125 C215.16983754 1005.04428484 213.12918322 999.82533493 211 994.625 C208.56318129 988.62855332 206.4712558 982.55761088 204.46313477 976.40600586 C199.44403542 961.11008699 193.84554835 945.9976695 188 931 C183.83111384 920.18811125 179.98153717 909.28156188 176.24707031 898.31176758 C174.3403998 892.74047633 172.34643287 887.23708907 170.12548828 881.78369141 C167.58957432 875.51156754 165.17656533 869.19007365 162.75 862.875 C162.46375763 862.13065704 162.17751526 861.38631409 161.88259888 860.61941528 C157.81975059 850.03037681 153.96991296 839.41199434 150.53613281 828.59912109 C148.95490296 823.65528732 147.15336033 818.96519415 144.98852539 814.2487793 C143.2583146 810.31275273 141.89189595 806.25284502 140.5 802.1875 C140.04608887 800.87700684 140.04608887 800.87700684 139.58300781 799.54003906 C137.64966109 793.94307283 135.7529292 788.33448036 133.921875 782.703125 C132.96250865 779.89006774 131.92974622 777.10912224 130.87890625 774.32910156 C129.88160497 771.68625317 128.89762724 769.03861564 127.9140625 766.390625 C127.15108281 764.34373466 126.38806115 762.29685997 125.625 760.25 C125.25117187 759.24195313 124.87734375 758.23390625 124.4921875 757.1953125 C122.59463293 752.11350539 120.62966714 747.08306712 118.5 742.09375 C115.76327835 735.59310758 113.55247084 728.9551085 111.375 722.25 C109.04060742 715.11275243 106.69946309 708.00807689 104 701 C103.30255378 699.14014341 102.60510758 697.2802868 101.90771484 695.42041016 C101.40948379 694.09190662 100.91110149 692.7634598 100.41259766 691.43505859 C99.07769503 687.877221 97.74520116 684.31851919 96.41796875 680.7578125 C96.02992065 679.71850586 96.02992065 679.71850586 95.6340332 678.65820312 C94.91933835 676.74376802 94.20572704 674.82892851 93.4921875 672.9140625 C92.40975113 670.03718717 91.26587279 667.19000238 90.10546875 664.34375 C87.66217894 658.26331644 85.55309509 652.07551311 83.4375 645.875 C80.76164499 638.05739355 78.06214401 630.26992358 75.05078125 622.57421875 C73.87833959 619.57797895 73 617.24428299 73 614 C55.84 614 38.68 614 21 614 C21 618.62 21 623.24 21 628 C18.44236879 640.96495083 11.90449594 652.32574074 1 660 C-2.24671285 661.89265741 -5.53360363 663.54932942 -9 665 C-9.83015625 665.36609375 -10.6603125 665.7321875 -11.515625 666.109375 C-16.86297663 667.47618685 -22.12700521 667.40941717 -27.625 667.4375 C-28.73746094 667.47037109 -29.84992188 667.50324219 -30.99609375 667.53710938 C-43.69908086 667.61844398 -53.61055976 662.85932822 -62.796875 654.33203125 C-74.09678499 642.60712465 -76 629.97724025 -76 614 C-93.16 614 -110.32 614 -128 614 C-128.66 616.97 -129.32 619.94 -130 623 C-130.95852739 625.35067431 -131.95658351 627.68575574 -133 630 C-133.81779286 632.34521889 -134.6088882 634.69989349 -135.375 637.0625 C-139.25466344 649.00500142 -143.63460572 660.72409607 -148.3125 672.375 C-152.31131476 682.4256376 -155.94736926 692.52943657 -159.2878418 702.81591797 C-161.4653904 709.49463607 -163.88680573 715.99536011 -166.5625 722.48828125 C-170.43050096 731.93755534 -173.95004111 741.52318869 -177.04296875 751.25390625 C-178 754 -178 754 -179.3671875 757.09765625 C-182.04011343 763.22113202 -183.9035338 769.66751332 -185.95117188 776.01953125 C-187.70629266 781.38296394 -189.60631392 786.54191521 -191.96606445 791.66650391 C-194.07968743 796.43675382 -195.82404986 801.35524789 -197.625 806.25 C-198.05449951 807.41152588 -198.48399902 808.57305176 -198.92651367 809.76977539 C-202.60941672 819.7954931 -206.10602381 829.88003597 -209.51220703 840.00292969 C-211.71005313 846.48302481 -214.10588444 852.8109057 -216.78344727 859.10766602 C-218.747151 863.77633913 -220.53554116 868.50769084 -222.3125 873.25 C-222.69567383 874.2699707 -223.07884766 875.28994141 -223.47363281 876.34082031 C-226.60527838 884.76146729 -229.45390977 893.26153148 -232.24780273 901.79907227 C-234.74892959 909.39121274 -237.39419577 916.91684722 -241.04901123 924.04631042 C-242.39645259 928.23134774 -242.25910225 932.15874425 -242.22363281 936.52856445 C-242.22424461 937.95878937 -242.22424461 937.95878937 -242.22486877 939.41790771 C-242.22506605 941.4847836 -242.22103643 943.55166327 -242.21326447 945.61852455 C-242.20303047 948.89353129 -242.20842836 952.16815795 -242.21868896 955.44316101 C-242.24664801 964.75343517 -242.2591648 974.06349519 -242.22998047 983.3737793 C-242.2132365 989.07265407 -242.22559025 994.77084886 -242.25643158 1000.46965599 C-242.26252834 1002.63729759 -242.25768615 1004.80499935 -242.24155426 1006.97258949 C-242.21989325 1010.01023363 -242.23528926 1013.04566765 -242.25878906 1016.08325195 C-242.24342606 1016.97235764 -242.22806305 1017.86146332 -242.2122345 1018.7775116 C-242.34569274 1026.88640491 -246.15848932 1031.01987904 -251.5625 1036.6875 C-268.68124741 1049.84892658 -294.03782943 1046.60914242 -314.03979492 1044.29711914 C-316.07032781 1043.98934003 -318.01180691 1043.50981754 -320 1043 C-319.97643433 1044.89105469 -319.97643433 1044.89105469 -319.95239258 1046.8203125 C-319.89784875 1051.52418561 -319.86356124 1056.22803107 -319.83520508 1060.93212891 C-319.82017401 1062.9631013 -319.79974353 1064.99404154 -319.77368164 1067.02490234 C-319.73704768 1069.95418259 -319.72021649 1072.88303144 -319.70703125 1075.8125 C-319.69154739 1076.71178223 -319.67606354 1077.61106445 -319.66011047 1078.53759766 C-319.65856544 1084.40351729 -320.65168994 1088.61916271 -323 1094 C-323.38800781 1095.05703125 -323.77601563 1096.1140625 -324.17578125 1097.203125 C-324.55089844 1098.20859375 -324.92601562 1099.2140625 -325.3125 1100.25 C-325.67988281 1101.24515625 -326.04726563 1102.2403125 -326.42578125 1103.265625 C-327.68119192 1106.40615997 -329.18484544 1109.38894291 -330.71875 1112.40234375 C-334.51578014 1119.90773471 -337.84570604 1127.59731867 -341.1875 1135.3125 C-341.80895198 1136.74036185 -342.43069545 1138.16809687 -343.05273438 1139.59570312 C-348.30888114 1151.66386619 -348.30888114 1151.66386619 -353.375 1163.8125 C-354.24441495 1165.8773605 -355.1193493 1167.93990641 -356 1170 C-356.391875 1170.93070313 -356.78375 1171.86140625 -357.1875 1172.8203125 C-359.67753054 1178.30820875 -362.15186863 1182.76461388 -368 1185 C-372.73030091 1185.76585824 -376.73912021 1185.38064296 -381.3125 1184 C-387.13865518 1179.66425661 -389.46652414 1173.1711592 -391.97265625 1166.55859375 C-392.99560171 1164.01095392 -394.17089856 1161.62205791 -395.4375 1159.1875 C-397.30858722 1155.54103815 -398.85410311 1151.88012296 -400.28125 1148.0390625 C-402.96729657 1140.97542269 -405.97119067 1134.08170307 -409.0625 1127.1875 C-409.57876953 1126.02541016 -410.09503906 1124.86332031 -410.62695312 1123.66601562 C-412.73921677 1118.9329306 -414.852968 1114.2160936 -417.20703125 1109.59765625 C-418.92361119 1106.22961566 -420.30974966 1102.79693317 -421.625 1099.25 C-423.1441034 1095.07016288 -423.1441034 1095.07016288 -425.05674553 1091.06853104 C-426.07867582 1088.82746609 -426.24705001 1087.3967029 -426.24050903 1084.95037842 C-426.24325836 1084.15394928 -426.24600769 1083.35752014 -426.24884033 1082.53695679 C-426.24164978 1081.67236847 -426.23445923 1080.80778015 -426.22705078 1079.91699219 C-426.22734283 1078.99957245 -426.22763489 1078.08215271 -426.22793579 1077.13693237 C-426.22654329 1074.10681679 -426.21098571 1071.07694759 -426.1953125 1068.046875 C-426.19158209 1065.94509007 -426.18873525 1063.8433034 -426.18673706 1061.74151611 C-426.17910282 1056.21113275 -426.15945605 1050.68085453 -426.1373291 1045.1505127 C-426.11686622 1039.50660627 -426.10773439 1033.86268284 -426.09765625 1028.21875 C-426.07621003 1017.14578715 -426.04207653 1006.07290232 -426 995 C-426.89710693 995.01885254 -427.79421387 995.03770508 -428.71850586 995.05712891 C-429.89292236 995.07179199 -431.06733887 995.08645508 -432.27734375 995.1015625 C-433.44257568 995.12041504 -434.60780762 995.13926758 -435.80834961 995.15869141 C-441.23006333 994.88911947 -443.57716166 992.52747566 -447.12133789 988.72265625 C-450.46235519 983.54901301 -449.54694432 976.97584449 -449.49609375 971.0625 C-449.49624891 969.6953931 -449.49774077 968.32828576 -449.50050354 966.96118164 C-449.5018842 964.10315378 -449.48938646 961.24562979 -449.46655273 958.38769531 C-449.43816831 954.73597332 -449.4409095 951.08508772 -449.45364285 947.43330383 C-449.46061909 944.61243628 -449.45278875 941.79175988 -449.44038582 938.97091675 C-449.43371414 936.97354211 -449.43800121 934.97614051 -449.44248962 932.97875977 C-449.42980545 931.75729248 -449.41712128 930.5358252 -449.40405273 929.27734375 C-449.39864975 928.20734131 -449.39324677 927.13733887 -449.38768005 926.03491211 C-448.78249625 921.29729497 -446.99695093 918.02389555 -443.6875 914.625 C-440.22731054 912.47509681 -436.74478638 912.8387972 -432.76953125 912.8984375 C-430.87037964 912.92043213 -430.87037964 912.92043213 -428.93286133 912.94287109 C-427.96501709 912.96172363 -426.99717285 912.98057617 -426 913 C-426.00276538 912.24277838 -426.00553076 911.48555676 -426.00837994 910.70538902 C-426.07464455 892.27710321 -426.12428292 873.8488412 -426.15543652 855.42046165 C-426.17090276 846.5086171 -426.19198764 837.59685209 -426.22631836 828.68505859 C-426.25622814 820.91717463 -426.27557677 813.14934828 -426.28226548 805.38140833 C-426.28617507 801.26865864 -426.29535806 797.15607377 -426.31719017 793.04337692 C-426.3375803 789.17087657 -426.34382873 785.29860866 -426.33932304 781.42605972 C-426.34014712 780.00629157 -426.34609785 778.58651549 -426.35761642 777.16679382 C-426.37259823 775.22464653 -426.36715312 773.28237401 -426.36076355 771.34017944 C-426.36352893 770.25430731 -426.36629431 769.16843517 -426.36914349 768.04965782 C-425.77972444 763.18020608 -424.06035784 759.9569083 -420.4375 756.6875 C-416.26465297 753.7986059 -413.10556474 753.8460618 -408.15722656 753.83886719 C-407.34727234 753.83390228 -406.53731812 753.82893738 -405.70281982 753.82382202 C-403.01541298 753.80918272 -400.32806522 753.80239463 -397.640625 753.796875 C-395.77455646 753.79112395 -393.90848794 753.78536621 -392.04241943 753.77960205 C-388.1249565 753.76908632 -384.20751413 753.76324775 -380.29003906 753.75976562 C-375.27520147 753.75428692 -370.26063623 753.73027468 -365.24588394 753.70179367 C-361.38880629 753.68314804 -357.5317939 753.67796061 -353.67467499 753.67642975 C-351.82633733 753.67340584 -349.97800075 753.66538614 -348.12970734 753.65224457 C-345.53971317 753.63514766 -342.95037961 753.63707339 -340.36035156 753.64355469 C-339.21922913 753.62973251 -339.21922913 753.62973251 -338.05505371 753.6156311 C-331.76066538 753.66485469 -327.89662219 755.35626077 -323.1875 759.4375 C-319.49930664 763.75795508 -319.86108154 767.66915026 -319.79467773 773.24707031 C-319.78477814 773.96941864 -319.77487854 774.69176697 -319.76467896 775.43600464 C-319.73316516 777.81667842 -319.7083467 780.19737213 -319.68359375 782.578125 C-319.66301547 784.23151154 -319.64201877 785.88489291 -319.62062073 787.53826904 C-319.56549026 791.88488583 -319.51604127 796.23154938 -319.46777344 800.57824707 C-319.41749243 805.0157486 -319.36184084 809.45318242 -319.30664062 813.890625 C-319.19916947 822.5936927 -319.09770009 831.29681715 -319 840 C-318.74307373 839.27409668 -318.48614746 838.54819336 -318.22143555 837.80029297 C-317.04742325 834.49043972 -315.8675203 831.1827158 -314.6875 827.875 C-314.28337891 826.73289062 -313.87925781 825.59078125 -313.46289062 824.4140625 C-313.06650391 823.30546875 -312.67011719 822.196875 -312.26171875 821.0546875 C-311.90037842 820.03874512 -311.53903809 819.02280273 -311.16674805 817.97607422 C-309.95188913 814.87728153 -308.50979067 811.96436751 -307 809 C-306.3966574 807.33235913 -305.83372755 805.64942304 -305.31640625 803.953125 C-305.02830078 803.025 -304.74019531 802.096875 -304.44335938 801.140625 C-304.15267578 800.18671875 -303.86199219 799.2328125 -303.5625 798.25 C-301.64942266 791.99058291 -299.62035937 785.86575226 -297.13598633 779.80908203 C-294.93950431 774.37759223 -292.90463129 768.88259533 -290.84594727 763.39770508 C-290.06999178 761.33243994 -289.2899437 759.26875117 -288.50976562 757.20507812 C-285.5078031 749.23115414 -282.68289199 741.22083248 -280.03320312 733.12280273 C-279.00673473 730.02035538 -277.90503378 726.96406923 -276.73095703 723.9152832 C-275.86890505 721.6564997 -275.05736714 719.38158909 -274.2421875 717.10546875 C-271.85843397 710.53697588 -269.27097337 704.05439694 -266.6875 697.5625 C-262.16305863 686.13630444 -257.95679694 674.63405505 -254 663 C-248.36702022 646.52075927 -242.21600511 630.2690504 -236 614 C-246.89 614 -257.78 614 -269 614 C-270.485 618.455 -270.485 618.455 -272 623 C-273.75 626.0625 -273.75 626.0625 -276 629 C-276.48210937 629.63808594 -276.96421875 630.27617188 -277.4609375 630.93359375 C-284.74109857 639.97398156 -295.78226244 646.05699681 -307.36657715 647.38632202 C-311.12200112 647.54192121 -314.85856064 647.58072043 -318.6171875 647.56640625 C-320.00522269 647.571659 -321.39325432 647.57794142 -322.78128052 647.58518982 C-325.67418348 647.59552673 -328.56659254 647.59113193 -331.45947266 647.57641602 C-335.12974148 647.55925479 -338.79844056 647.58272336 -342.46853447 647.61790562 C-345.33088148 647.64008359 -348.19286475 647.63838938 -351.05527115 647.6301403 C-353.05405028 647.62894404 -355.05280788 647.64867249 -357.05148315 647.66908264 C-371.2122319 647.5265117 -381.77951323 642.83775155 -391.9296875 633.16015625 C-396.76439664 628.08682412 -399.42159622 622.46049485 -402 616 C-402.51578613 614.85180786 -402.51578613 614.85180786 -403.04199219 613.68041992 C-406.60551165 603.71001214 -405.49812977 588.30499491 -401.875 578.4375 C-396.53335999 567.27675494 -387.83041478 557.97866843 -376.44677734 552.84960938 C-364.7271684 548.90154814 -352.70432951 549.39718101 -340.46972656 549.47851562 C-336.64062871 549.49991267 -332.81341499 549.47866503 -328.984375 549.453125 C-308.57312937 549.42757725 -293.08898568 550.33860369 -277.84765625 565.08203125 C-273.00507727 570.27270259 -269 575.74790048 -269 583 C-254.15 583 -239.3 583 -224 583 C-223.67 581.35 -223.34 579.7 -223 578 C-222.26397746 575.75909865 -221.48977194 573.53054594 -220.6875 571.3125 C-220.46239746 570.68947998 -220.23729492 570.06645996 -220.00537109 569.42456055 C-218.76981267 566.02918295 -217.48611961 562.65932224 -216.125 559.3125 C-211.6231686 548.22967811 -207.65148411 536.93037101 -203.75 525.625 C-200.57626657 516.43641806 -197.11986198 507.36019244 -193.64587402 498.28219604 C-190.54687356 490.17676479 -187.5737423 482.06666519 -184.91015625 473.80859375 C-183.95280896 470.85437615 -182.90264208 467.95357033 -181.78344727 465.05761719 C-180.90428637 462.74862122 -180.05993813 460.42857328 -179.21875 458.10546875 C-176.85126752 451.58449875 -174.46251064 445.07156408 -172.0625 438.5625 C-171.64548828 437.42490234 -171.22847656 436.28730469 -170.79882812 435.11523438 C-168.78093418 429.64789575 -166.70253475 424.23071202 -164.421875 418.8671875 C-162.02585115 413.18909308 -160.06682898 407.42858233 -158.1875 401.5625 C-155.2349796 392.46409226 -152.01141032 383.52676226 -148.3503418 374.68774414 C-145.93112627 368.95065364 -145.93112627 368.95065364 -147 363 C-148.27995834 361.03017406 -148.27995834 361.03017406 -149.9375 359.0625 C-157.92952571 348.08172087 -163.38286958 334.30195863 -167.28125 321.33984375 C-167.95578181 318.9896039 -167.95578181 318.9896039 -168.9609375 316.78515625 C-180.22533863 286.59147955 -175.45994565 248.47299311 -162.45703125 219.5703125 C-161.02675811 216.68035187 -159.52311943 213.8417653 -158 211 C-157.2066971 209.31326859 -156.41498201 207.62578931 -155.625 205.9375 C-152.72566003 200.14808313 -148.93721237 195.11911477 -145 190 C-144.40574219 189.19949219 -143.81148437 188.39898438 -143.19921875 187.57421875 C-128.15046733 167.8851671 -103.39575016 144.97373666 -78 141 C-78.00460896 140.43899723 -78.00921793 139.87799446 -78.01396656 139.29999161 C-78.12475568 125.60139822 -78.20698618 111.90288414 -78.25906086 98.20393753 C-78.28509506 91.57898448 -78.32038109 84.95435609 -78.37719727 78.32958984 C-78.43173599 71.92993756 -78.46146695 65.53059652 -78.47438622 59.13072968 C-78.4835868 56.69560602 -78.5015531 54.26049838 -78.52865028 51.82550812 C-78.7048892 35.32421456 -78.3205285 22.91773178 -67 10 C-66.49984375 9.39542969 -65.9996875 8.79085938 -65.484375 8.16796875 C-50.35936452 -8.68246768 -19.26466762 -10.0522374 0 0 Z " fill="#1C1C1C" transform="translate(1009,367)"/>
<path d="M0 0 C0.82242187 0.45246094 1.64484375 0.90492188 2.4921875 1.37109375 C21.92927116 12.54287548 36.89753376 28.7214721 48 48 C48.60972656 48.99902344 49.21945312 49.99804688 49.84765625 51.02734375 C62.99823809 74.40936729 64.79771471 105.91867277 58.63818359 131.73193359 C50.53936522 160.51465075 31.66546747 184.65117421 7 201 C6.13503906 201.5878125 5.27007813 202.175625 4.37890625 202.78125 C-1.27532538 206.42075541 -7.14461091 208.68600667 -13.5078125 210.82421875 C-16.0060137 211.66533571 -18.40670776 212.5610455 -20.84765625 213.5390625 C-43.68399254 222.14513024 -76.00182737 220.32158478 -98.1953125 210.79296875 C-120.9202057 200.34941363 -139.48456386 185.08659589 -153 164 C-153.48525146 163.26007813 -153.97050293 162.52015625 -154.47045898 161.7578125 C-158.38977527 155.55690084 -160.96022577 149.34873059 -163.1875 142.375 C-163.52845703 141.31740479 -163.86941406 140.25980957 -164.22070312 139.17016602 C-170.32321959 119.79880753 -172.91337584 99.01642316 -168 79 C-167.731875 77.83855469 -167.46375 76.67710937 -167.1875 75.48046875 C-159.30224173 43.57802801 -139.74370409 18.03502953 -111.5625 0.9375 C-107.6703387 -1.36315167 -104.49704129 -2.4635341 -100 -3 C-100 -3.66 -100 -4.32 -100 -5 C-66.25110581 -15.27056242 -31.89420027 -17.58795931 0 0 Z " fill="#FCFCFC" transform="translate(1036,542)"/>
<path d="M0 0 C14.19 0 28.38 0 43 0 C45.35611262 5.30125341 47.51216058 10.16673701 49.33203125 15.58984375 C49.9357959 17.37128784 49.9357959 17.37128784 50.55175781 19.1887207 C51.1758252 21.04436646 51.1758252 21.04436646 51.8125 22.9375 C55.3635502 33.3944845 59.11650509 43.73675419 63.20751953 53.99560547 C66.76103313 62.9833894 70.11493659 72.04196946 73.04296875 81.25390625 C73.7674794 83.33280825 74.59341223 85.37671638 75.46484375 87.3984375 C76.96393741 90.91539514 78.19613098 94.42699452 79.375 98.0625 C82.43355256 107.37411917 85.53914584 116.66196079 89.375 125.6875 C93.86387397 136.27446692 97.77810275 147.12210428 101.3125 158.0625 C104.35903507 167.36297833 107.9812016 176.44298291 111.515625 185.56640625 C118.56403569 203.77301794 125.20887378 222.16322251 131.1875 240.75 C132.36706511 244.34535566 133.74906592 247.7089997 135.375 251.125 C138.35672909 257.44737001 140.42905084 264.02727293 142.5703125 270.66796875 C143.66503016 274.03981805 144.86683457 277.35784202 146.12939453 280.67114258 C147.22309198 283.59676791 148.26371848 286.53957813 149.3046875 289.484375 C149.93310547 291.25941406 149.93310547 291.25941406 150.57421875 293.0703125 C151.43562879 295.50709406 152.29503188 297.94458609 153.15234375 300.3828125 C155.54714404 307.13512401 158.11285469 313.7653264 160.91064453 320.36035156 C162.28926443 323.70092493 163.41325276 327.05345876 164.5 330.5 C165.9585086 335.02777819 167.54657053 339.44463415 169.4375 343.8125 C171.45687864 348.51815084 173.11691604 353.25797508 174.6875 358.125 C177.19767613 365.87624934 180.04773736 373.46940314 183 381.0625 C186.85551235 390.98360021 190.53777354 400.9358739 194 411 C197.37907003 420.80700122 200.77955617 430.59015089 204.5625 440.25 C204.84794678 440.98404053 205.13339355 441.71808105 205.42749023 442.47436523 C206.84673174 446.11074236 208.29981474 449.7279449 209.80859375 453.328125 C210.37256928 454.71867967 210.93637852 456.10930179 211.5 457.5 C212.0053125 458.7065625 212.510625 459.913125 213.03125 461.15625 C215.02444335 469.06472686 212.81609161 476.77270344 210.5625 484.4375 C210.30952148 485.31349854 210.05654297 486.18949707 209.79589844 487.09204102 C206.45041971 498.31536269 202.23910238 509.24367349 198.04980469 520.17358398 C196.96459453 523.09532306 195.96950879 526.03806849 195 529 C194.34 529 193.68 529 193 529 C192.81002441 528.40388916 192.62004883 527.80777832 192.42431641 527.19360352 C188.24622903 514.1696249 183.72395793 501.37382179 178.50244141 488.72875977 C176.11680512 482.92699667 173.97965281 477.1068399 172.03613281 471.14257812 C170.12659238 465.3509654 168.05293682 459.61700207 166 453.875 C165.57460937 452.67746094 165.14921875 451.47992187 164.7109375 450.24609375 C162.55005298 444.19429139 160.31953477 438.18892468 157.90112305 432.23535156 C156.53542816 428.84756983 155.26818235 425.42519071 154 422 C153.46231771 420.56507489 152.92455443 419.13018012 152.38671875 417.6953125 C149.53680851 410.04599304 146.76504011 402.3912626 144.25 394.625 C141.61917832 386.55343073 138.64779298 378.61939658 135.625 370.6875 C135.38612061 370.06055237 135.14724121 369.43360474 134.90112305 368.78765869 C132.53634856 362.58780738 130.15448397 356.39462312 127.7578125 350.20703125 C124.13953911 340.8386882 120.76775615 331.4390739 117.64794922 321.89282227 C115.5463409 315.51212914 113.27043639 309.2136339 110.875 302.9375 C110.56240234 302.11765625 110.24980469 301.2978125 109.92773438 300.453125 C108.21102027 296.00185377 106.40979547 291.59748434 104.54296875 287.20703125 C101.86729978 280.81849006 99.63883342 274.31425015 97.4375 267.75 C93.24067565 255.39107033 88.75783097 243.15841673 84.11108398 230.96191406 C81.54453331 224.21129228 79.12190203 217.44090077 76.87939453 210.57543945 C75.76189359 207.3026695 74.38335062 204.16831916 73 201 C71.86753624 197.93350493 70.80996929 194.84218419 69.75 191.75 C67.30923967 184.70686948 64.82205533 177.68382272 62.25 170.6875 C61.96866211 169.91825195 61.68732422 169.14900391 61.39746094 168.35644531 C60.18077757 165.060234 58.92331415 161.82509185 57.51171875 158.60546875 C55.22684852 153.15602374 53.49638791 147.53789084 51.69335938 141.9140625 C50.04716181 136.86914523 48.19092906 132.05568612 45.97973633 127.23339844 C44.27336366 123.3435661 42.9323627 119.33050186 41.5625 115.3125 C40.95341743 113.55068013 40.34404098 111.78896182 39.734375 110.02734375 C39.43982422 109.17253418 39.14527344 108.31772461 38.84179688 107.43701172 C37.68124753 104.07720789 36.50130142 100.724925 35.3125 97.375 C34.95800781 96.37210938 34.60351562 95.36921875 34.23828125 94.3359375 C33.24940901 91.67190944 32.20980635 89.04817382 31.13671875 86.41796875 C28.24408036 79.23261448 25.83070673 71.88193275 23.35546875 64.54492188 C21.4329663 58.91284856 19.39381566 53.44266601 16.90673828 48.03637695 C15.4661927 44.80116137 14.32891903 41.47498527 13.1875 38.125 C10.70998423 30.96782168 8.12243867 23.85799411 5.44799805 16.77197266 C3.37436235 11.21518696 1.71432099 5.71440329 0 0 Z " fill="#FCFCFC" transform="translate(1114,981)"/>
<path d="M0 0 C0.94359375 0.27972656 1.8871875 0.55945313 2.859375 0.84765625 C14.16380153 4.39104883 23.08515657 9.17018686 32 17 C33.051875 17.90878906 33.051875 17.90878906 34.125 18.8359375 C45.5608293 29.42301384 52.29412548 44.07160852 53.14086914 59.58007812 C53.87117401 81.03163963 51.11854215 96.660881 36.5 113.375 C35.01725373 114.93326815 33.51827687 116.47632961 32 118 C31.38769531 118.63550781 30.77539062 119.27101563 30.14453125 119.92578125 C15.62245987 133.89050235 -3.55743149 136.50290298 -22.7578125 136.27734375 C-38.51214254 135.80457272 -52.6821169 128.89012059 -64 118 C-76.76829164 103.56710145 -85.16880833 86.5140999 -85.1875 67 C-85.19974609 66.32710937 -85.21199219 65.65421875 -85.22460938 64.9609375 C-85.23815753 60.28230673 -84.44009176 56.43255362 -83 52 C-82.58978027 50.58893794 -82.18100098 49.17745656 -81.7734375 47.765625 C-76.69447683 31.03244406 -66.77816052 16.74723492 -51.64453125 7.33984375 C-35.66336536 -0.75696556 -17.6238919 -5.45354697 0 0 Z " fill="#1C1C1C" transform="translate(997,577)"/>
<path d="M0 0 C1.17175781 0.2165625 1.17175781 0.2165625 2.3671875 0.4375 C21.07955539 3.43814697 40.29415451 2.70678901 59 0 C62.06443796 7.23283494 64.64189509 14.62060424 67.21435547 22.0378418 C70.12468346 30.40909622 73.18733309 38.72037003 76.27148438 47.02880859 C77.17459032 49.47240021 78.05714394 51.92313116 78.9375 54.375 C80.16607901 57.77319726 81.4387348 61.15190135 82.73828125 64.5234375 C86.8329593 75.15680139 90.74621753 85.82500874 94.38574219 96.62402344 C94.85608887 98.00509277 94.85608887 98.00509277 95.3359375 99.4140625 C95.60970215 100.2282666 95.8834668 101.0424707 96.16552734 101.88134766 C97.00970514 104.24334685 97.00970514 104.24334685 99 107 C99.45703125 108.83984375 99.45703125 108.83984375 99.8125 110.9375 C100.79257493 115.61513033 102.48023141 119.71142767 104.3671875 124.08984375 C106.61104083 129.38099467 108.64480703 134.75377709 110.6875 140.125 C111.0801001 141.13828369 111.4727002 142.15156738 111.87719727 143.19555664 C112.25158936 144.18547607 112.62598145 145.17539551 113.01171875 146.1953125 C113.51384888 147.51039795 113.51384888 147.51039795 114.02612305 148.85205078 C115.35412869 153.1446817 116.11877971 157.59389855 117 162 C104.13 162 91.26 162 78 162 C77.67 157.05 77.34 152.1 77 147 C73.69651104 133.1507578 67.44297321 122.87031527 55.22265625 115.2734375 C42.84851806 108.26419412 27.0643096 108.05515342 13.25 111.125 C1.79162029 114.69238651 -7.07541449 121.83515797 -12.859375 132.39453125 C-17.86090291 143.00491545 -18.20487093 149.27793481 -19 162 C-31.87 162 -44.74 162 -58 162 C-56.73843142 154.43058854 -54.62076231 147.36764822 -51.84887695 140.22314453 C-50.9368813 137.8346969 -50.06844579 135.43308863 -49.203125 133.02734375 C-46.94998657 126.81795173 -44.57398259 120.65911189 -42.1875 114.5 C-36.43130846 99.57935952 -30.8841935 84.60578782 -25.63085938 69.50097656 C-21.91761346 58.84938463 -18.16305858 48.18599798 -13.875 37.75 C-11.95052251 33.04205079 -10.37495518 28.22535622 -8.78686523 23.39672852 C-6.17708889 15.46636284 -3.12446943 7.73980245 0 0 Z " fill="#FCFCFC" transform="translate(952,788)"/>
<path d="M0 0 C14.19 0 28.38 0 43 0 C39.63983051 11.20056497 39.63983051 11.20056497 37.6875 16.125 C34.99224671 23.01197557 32.38174221 29.92774866 29.80029297 36.85791016 C28.99818703 39.00485265 28.18878377 41.14894752 27.37890625 43.29296875 C23.37347754 53.96476714 19.70711074 64.72856949 16.19604492 75.57348633 C14.41587159 81.0143543 12.51883981 86.2583994 10.1184082 91.453125 C7.76631759 96.80938113 5.78241092 102.32259768 3.73608398 107.80151367 C2.93984439 109.93122941 2.13719401 112.05845155 1.33398438 114.18554688 C-1.12207019 120.7221079 -3.48491153 127.25121188 -5.4152832 133.96655273 C-8.20448482 143.66645265 -12.17733426 153.02327444 -15.9375 162.375 C-20.68203916 174.17545357 -25.37474853 185.94784043 -29.31634521 198.04484558 C-33.24614489 210.07934187 -37.67160515 221.88728297 -42.25 233.6875 C-43.31589669 236.43839685 -44.38025016 239.18984628 -45.44012451 241.94306946 C-46.08990674 243.63080216 -46.7429781 245.31727436 -47.40020752 247.00212097 C-49.2718514 251.86087478 -50.88298463 256.74363758 -52.32501221 261.74714661 C-53.37021988 265.23565361 -54.67117824 268.61150451 -56 272 C-56.2784375 272.71929688 -56.556875 273.43859375 -56.84375 274.1796875 C-58.02140941 277.21846937 -59.20832207 280.25361019 -60.39453125 283.2890625 C-60.83345703 284.41441406 -60.83345703 284.41441406 -61.28125 285.5625 C-61.53970703 286.22378906 -61.79816406 286.88507813 -62.06445312 287.56640625 C-63.39823792 291.03591744 -64.69485524 294.51961397 -66 298 C-80.19 298 -94.38 298 -109 298 C-105.66666667 286.88888889 -105.66666667 286.88888889 -104 283 C-102.30795163 278.90176878 -100.98092703 274.7938147 -99.80859375 270.51953125 C-99 268 -99 268 -97.5390625 264.59375 C-96.1351396 261.31555439 -95.00791488 258.08596551 -93.9375 254.6875 C-91.19311609 246.18790323 -87.90807748 237.90218364 -84.66943359 229.58154297 C-81.91112333 222.46221865 -79.32864651 215.33239481 -77.03515625 208.05078125 C-76.09868812 205.29085065 -74.9925399 202.6654352 -73.82348633 199.99829102 C-72.11285358 195.84722994 -70.75202418 191.56328825 -69.3125 187.3125 C-66.36579057 178.70302578 -63.20276165 170.2235046 -59.70239258 161.82348633 C-58.06603538 157.85639249 -56.64401728 153.92711749 -55.45703125 149.80078125 C-54.34457861 145.93916832 -52.85765848 142.57242015 -51 139 C-50.37282898 137.09722692 -49.79095238 135.17905661 -49.25 133.25 C-47.37234497 126.94079133 -45.06957968 120.86755486 -42.64648438 114.74975586 C-40.33885169 108.9142987 -38.19676468 103.04278266 -36.140625 97.11328125 C-35.3715475 95.01412108 -34.53185845 92.9396794 -33.62890625 90.89453125 C-31.29147021 85.52166458 -29.55519484 79.92355328 -27.6875 74.375 C-23.08969254 60.86086736 -18.10977088 47.50883958 -12.9987793 34.18115234 C-12.4312029 32.69899849 -11.86389794 31.21674067 -11.296875 29.734375 C-11.02196732 29.01613556 -10.74705963 28.29789612 -10.46382141 27.55789185 C-8.18769257 21.57421989 -6.04468884 15.5474232 -3.96551514 9.49261475 C-2.81753058 6.17709986 -1.57500802 3.15001604 0 0 Z " fill="#FCFCFC" transform="translate(806,981)"/>
<path d="M0 0 C0.99 0.33 1.98 0.66 3 1 C4.08716082 3.33876613 4.97448407 5.57205558 5.8125 8 C6.06749268 8.70898438 6.32248535 9.41796875 6.58520508 10.1484375 C7.4019055 12.4282991 8.20169497 14.71363904 9 17 C9.53834107 18.52108885 10.07739649 20.04192508 10.6171875 21.5625 C11.62068541 24.39330401 12.61582233 27.22682897 13.60546875 30.0625 C14.52644866 32.68748704 15.48061682 35.29652532 16.46484375 37.8984375 C18.18166891 42.4463334 19.77902355 47.03356693 21.375 51.625 C21.99455727 53.3985194 22.61435 55.17195656 23.234375 56.9453125 C24.06674437 59.32745737 24.89892901 61.709658 25.72851562 64.09277344 C28.17419283 71.10876484 30.79427666 77.99474052 33.69140625 84.8359375 C37.56202835 94.1947551 40.93208187 103.74682867 44.25 113.3125 C49.73539679 129.11677565 55.52538616 144.82190256 61.6875 160.375 C64.31158644 167.01564043 66.67219691 173.72876972 68.9375 180.5 C69.39805786 181.87357666 69.39805786 181.87357666 69.86791992 183.27490234 C72 189.74182266 72 189.74182266 72 192 C57.81 192 43.62 192 29 192 C18.9482202 165.10469728 18.9482202 165.10469728 15.9375 155.8125 C13.59941866 148.61781711 11.0254876 141.5228819 8.375 134.4375 C8.00238037 133.43759033 7.62976074 132.43768066 7.24584961 131.4074707 C5.57487322 126.97445769 3.85350842 122.59975217 1.88671875 118.2890625 C0.05792659 114.25371435 -1.31502949 110.18394001 -2.5625 105.9375 C-4.17245315 100.53379588 -5.97580924 95.26263469 -8 90 C-8.69744622 88.14014341 -9.39489242 86.2802868 -10.09228516 84.42041016 C-10.59051621 83.09190662 -11.08889851 81.7634598 -11.58740234 80.43505859 C-12.92230497 76.877221 -14.25479884 73.31851919 -15.58203125 69.7578125 C-15.84072998 69.06494141 -16.09942871 68.37207031 -16.3659668 67.65820312 C-17.08066165 65.74376802 -17.79427296 63.82892851 -18.5078125 61.9140625 C-19.59605442 59.02127695 -20.74707974 56.15873401 -21.9140625 53.296875 C-24.24983562 47.48016803 -26.2660868 41.56939178 -28.25 35.625 C-28.61351562 34.55894531 -28.97703125 33.49289062 -29.3515625 32.39453125 C-29.69445313 31.36972656 -30.03734375 30.34492187 -30.390625 29.2890625 C-30.70032227 28.36818848 -31.01001953 27.44731445 -31.32910156 26.49853516 C-32 24 -32 24 -32 20 C-31.195625 19.63261719 -31.195625 19.63261719 -30.375 19.2578125 C-24.61280239 16.50939588 -19.16629311 13.36644602 -13.75 10 C-12.74066406 9.37762451 -12.74066406 9.37762451 -11.7109375 8.74267578 C-8.49026865 6.71782345 -5.54372703 4.66087654 -2.703125 2.125 C-1.81109375 1.42375 -0.9190625 0.7225 0 0 Z " fill="#FCFCFC" transform="translate(1073,758)"/>
<path d="M0 0 C4.23676443 0.87180455 7.09704354 3.0699811 10.5 5.625 C18.46900523 11.45720572 26.46614614 17.08376235 36 20 C34.62035785 27.15643253 32.3796851 33.61381179 29.6875 40.375 C28.79114991 42.66725835 27.89672656 44.96027077 27.00390625 47.25390625 C26.76702087 47.86129135 26.5301355 48.46867645 26.28607178 49.09446716 C23.45182221 56.37744412 20.70846611 63.69424992 17.98062134 71.01763916 C17.41787783 72.52697278 16.8536098 74.03573902 16.28768921 75.54388428 C13.64839808 82.57878589 11.07065006 89.58677594 8.9296875 96.79296875 C7.36650168 102.02887061 5.42214971 106.98491602 3.26757812 112.00292969 C1.09228725 117.14620218 -0.82019165 122.38572767 -2.75 127.625 C-3.39569946 129.3716394 -3.39569946 129.3716394 -4.05444336 131.15356445 C-7.37618884 140.18868782 -10.53903832 149.27311368 -13.6550293 158.38085938 C-17.53788392 169.6770661 -21.76173204 180.83250028 -26 192 C-40.19 192 -54.38 192 -69 192 C-67.87643484 185.25860905 -67.87643484 185.25860905 -66.4765625 181.828125 C-66.17911133 181.0861084 -65.88166016 180.3440918 -65.57519531 179.57958984 C-65.10484863 178.42644287 -65.10484863 178.42644287 -64.625 177.25 C-62.39718241 171.66919305 -60.26201996 166.1483887 -58.703125 160.3359375 C-57.64625595 156.82478364 -56.30870794 153.42308502 -55 150 C-54.1821444 147.84771221 -53.36445102 145.69536276 -52.546875 143.54296875 C-52.09586426 142.35719238 -51.64485352 141.17141602 -51.18017578 139.94970703 C-42.39088392 117.07137283 -42.39088392 117.07137283 -34.3125 93.9375 C-32.7518059 89.18470665 -31.07188808 84.54408657 -29.1640625 79.921875 C-27.21516249 75.03000518 -25.43575271 70.07477628 -23.63720703 65.12597656 C-22.15924183 61.07738049 -20.63066645 57.06166383 -19.00390625 53.0703125 C-16.9224896 47.90839921 -15.15867661 42.66616765 -13.4375 37.375 C-11.64583743 31.89275089 -9.83469945 26.43492475 -7.77905273 21.04541016 C-6.89476415 18.72370231 -6.03408222 16.39393714 -5.17578125 14.0625 C-4.86962891 13.23105469 -4.56347656 12.39960937 -4.24804688 11.54296875 C-3.93931641 10.70378906 -3.63058594 9.86460937 -3.3125 9 C-2.99216797 8.12988281 -2.67183594 7.25976562 -2.34179688 6.36328125 C-1.56098366 4.24226625 -0.78038863 2.12117124 0 0 Z " fill="#FCFCFC" transform="translate(887,758)"/>
<path d="M0 0 C15.18 0 30.36 0 46 0 C46 42.24 46 84.48 46 128 C30.82 128 15.64 128 0 128 C0 85.76 0 43.52 0 0 Z " fill="#F9F9F9" transform="translate(613,1152)"/>
<path d="M0 0 C15.18 0 30.36 0 46 0 C46.28076167 20.9011462 46.28076167 20.9011462 46.34179688 29.88671875 C46.38346441 35.99181293 46.43247775 42.09616458 46.52807617 48.20068359 C46.60475534 53.12855984 46.6461191 58.05563871 46.6641407 62.98406601 C46.6769648 64.8538148 46.70200472 66.7235254 46.7401104 68.59292984 C46.98512777 81.12413573 45.49415396 89.20962085 39 100 C37.98841438 102.13647073 37.00117667 104.28483404 36.05078125 106.44921875 C35.59509766 107.48240234 35.13941406 108.51558594 34.66992188 109.58007812 C34.22197266 110.60552734 33.77402344 111.63097656 33.3125 112.6875 C32.62317383 114.24307617 32.62317383 114.24307617 31.91992188 115.83007812 C29.00724127 122.46567146 26.38633285 129.15759899 24 136 C23.01 135.67 22.02 135.34 21 135 C19.82641602 132.54418945 19.82641602 132.54418945 18.69140625 129.30078125 C16.07085382 122.11609182 13.06558858 115.16372773 9.9375 108.1875 C9.42123047 107.02541016 8.90496094 105.86332031 8.37304688 104.66601562 C5.87540196 98.86435981 5.87540196 98.86435981 2.99679279 93.25211048 C0.09633704 88.07025129 -0.56187868 83.98668037 -0.45410156 78.10546875 C-0.45468567 77.2557399 -0.45526978 76.40601105 -0.45587158 75.53053284 C-0.4531065 72.74909208 -0.42209025 69.96875127 -0.390625 67.1875 C-0.38315698 65.24837835 -0.3774667 63.30924911 -0.37347412 61.37011719 C-0.35826195 56.28679262 -0.31901843 51.2039312 -0.2746582 46.12078857 C-0.22638243 40.01091583 -0.20815045 33.90088751 -0.18484497 27.7908783 C-0.14616461 18.52693089 -0.06947999 9.26399808 0 0 Z " fill="#F9F9F9" transform="translate(613,1362)"/>
<path d="M0 0 C10.80413961 6.17554798 19.10913993 13.64504689 22.5625 26 C24.35999428 36.68647285 22.87942622 47.27884506 16.984375 56.45703125 C10.55072442 65.19462427 3.24737438 71.26476527 -7.4375 74 C-16.78854424 75.19055584 -26.30952619 75.24208648 -34.4375 70 C-35.448125 69.443125 -36.45875 68.88625 -37.5 68.3125 C-46.78690376 61.00153321 -52.5618384 51.7707335 -54.4375 40 C-55.39732804 27.96866707 -52.34152265 18.41972529 -44.83984375 8.9921875 C-33.6501448 -3.22918583 -14.87624714 -7.09084961 0 0 Z " fill="#FCFCFC" transform="translate(997.4375,609)"/>
<path d="M0 0 C40.59 0 81.18 0 123 0 C123 7.26 123 14.52 123 22 C82.41 22 41.82 22 0 22 C0 14.74 0 7.48 0 0 Z " fill="#F8F8F8" transform="translate(613,1310)"/>
<path d="M0 0 C1.82327316 -0.00929787 1.82327316 -0.00929787 3.68338013 -0.01878357 C6.25033773 -0.02587632 8.81734139 -0.02271737 11.38427734 -0.01000977 C15.3000211 0.00383451 19.21336491 -0.0302034 23.12890625 -0.06835938 C25.62760475 -0.06931082 28.12630622 -0.06745038 30.625 -0.0625 C31.78981903 -0.07575821 32.95463806 -0.08901642 34.15475464 -0.10267639 C41.17353973 -0.02279274 46.06746883 0.85960301 51.4453125 5.56640625 C55.34782467 10.31459203 55.05422655 15.10709757 54.9296875 21.03515625 C54.22173925 26.19632739 52.27031046 30.01521509 48.4453125 33.56640625 C44.79680571 35.31882178 41.86176394 35.82512112 37.83227539 35.85693359 C36.18014793 35.87607315 36.18014793 35.87607315 34.49464417 35.89559937 C32.72418983 35.89893784 32.72418983 35.89893784 30.91796875 35.90234375 C29.08545815 35.91232895 29.08545815 35.91232895 27.21592712 35.92251587 C24.63460799 35.93263235 22.05326276 35.9373332 19.47192383 35.93701172 C15.52576616 35.94138635 11.58072561 35.97772331 7.63476562 36.015625 C5.12500382 36.02149302 2.61523671 36.02546251 0.10546875 36.02734375 C-1.66194923 36.0489003 -1.66194923 36.0489003 -3.46507263 36.07089233 C-9.79070939 36.03565395 -13.79878142 35.91395955 -18.5546875 31.56640625 C-22.89256977 26.20113081 -23.17233067 21.48197962 -22.9375 14.6640625 C-22.2543458 9.13609025 -20.35130913 6.19917569 -16.19091797 2.41821289 C-11.33815449 -0.67692554 -5.55406935 -0.02356765 0 0 Z " fill="#FCFCFC" transform="translate(1273.5546875,947.43359375)"/>
<path d="M0 0 C4.22628337 1.85169039 7.0862231 4.06358075 9.07046509 8.26846313 C10.06233058 11.18316501 10.26574989 13.43450566 10.29052734 16.50537109 C10.30328705 17.58354095 10.31604675 18.66171082 10.32919312 19.77255249 C10.33141876 20.92784454 10.33364441 22.0831366 10.3359375 23.2734375 C10.3425943 24.47054352 10.3492511 25.66764954 10.35610962 26.90103149 C10.36622609 29.4310757 10.37092695 31.96114653 10.37060547 34.49121094 C10.3749762 38.35396467 10.41130232 42.2155735 10.44921875 46.078125 C10.45508761 48.5390586 10.45905654 50.99999762 10.4609375 53.4609375 C10.47530853 54.61218109 10.48967957 55.76342468 10.50448608 56.94955444 C10.46714063 63.5314621 9.98897047 67.67986345 6 73 C0.5401998 77.62896104 -4.72280348 77.60978854 -11.74609375 77.37890625 C-15.91096182 76.89392161 -18.06206263 76.01525151 -21 73 C-25.57514369 66.75142252 -25.586156 61.37970029 -25.53125 53.78515625 C-25.5350769 52.61544785 -25.53890381 51.44573944 -25.54284668 50.24058533 C-25.54556139 47.77374406 -25.53823127 45.3068738 -25.52148438 42.84008789 C-25.50008975 39.07828095 -25.52129325 35.3183881 -25.546875 31.55664062 C-25.54423127 29.15364164 -25.53910537 26.75064385 -25.53125 24.34765625 C-25.53934692 23.22972183 -25.54744385 22.11178741 -25.55578613 20.9599762 C-25.47885855 14.50540217 -24.86591053 9.33027375 -21 4 C-14.7832711 -1.48534903 -7.88450534 -1.12153926 0 0 Z " fill="#FCFCFC" transform="translate(989,927)"/>
<path d="M0 0 C1.14476303 -0.0127597 2.28952606 -0.02551941 3.46897888 -0.03866577 C4.70132767 -0.04089142 5.93367645 -0.04311707 7.20336914 -0.04541016 C8.47322159 -0.05206696 9.74307404 -0.05872375 11.05140686 -0.06558228 C13.73721336 -0.07570864 16.42261502 -0.08126445 19.10839844 -0.08007812 C22.54288459 -0.07987485 25.97654408 -0.10719031 29.41083431 -0.14162254 C32.69581478 -0.16925915 35.98078819 -0.16804112 39.26586914 -0.17041016 C40.4961937 -0.18478119 41.72651825 -0.19915222 42.99412537 -0.21395874 C44.14204056 -0.20780548 45.28995575 -0.20165222 46.47265625 -0.1953125 C47.98345009 -0.19958755 47.98345009 -0.19958755 49.52476501 -0.20394897 C53.06954942 0.42740821 54.71985402 1.82833813 57.30102539 4.29052734 C61.51232047 10.86088487 61.03341854 17.74440913 60.30102539 25.29052734 C59.16780093 29.26641654 57.37624617 31.54096584 53.94165039 33.93530273 C48.54449473 35.94439682 43.39087829 35.73839745 37.67602539 35.72412109 C36.4557666 35.72936295 35.23550781 35.7346048 33.97827148 35.74000549 C31.40292114 35.74641793 28.82754148 35.74509883 26.25219727 35.73657227 C22.31481783 35.72805717 18.37888681 35.75684611 14.44165039 35.78857422 C11.93644249 35.79018623 9.43123203 35.7896087 6.92602539 35.78662109 C5.75088379 35.79785507 4.57574219 35.80908905 3.36499023 35.82066345 C-2.94996759 35.76687429 -6.94565736 35.619371 -11.69897461 31.29052734 C-16.20020152 25.84167371 -16.41530398 20.65142278 -16.22241211 13.68505859 C-15.46073806 8.74554556 -13.48296761 5.51907183 -9.69897461 2.29052734 C-6.40339255 0.27079998 -3.83743605 0.02906901 0 0 Z " fill="#FCFCFC" transform="translate(650.698974609375,947.70947265625)"/>
<path d="M0 0 C13.53 0 27.06 0 41 0 C41 7.26 41 14.52 41 22 C27.47 22 13.94 22 0 22 C0 14.74 0 7.48 0 0 Z " fill="#F7F7F7" transform="translate(961,477)"/>
<path d="M0 0 C14.85 0 29.7 0 45 0 C45 6.27 45 12.54 45 19 C39.4245672 20.11508656 34.28774861 20.19143702 28.625 20.1875 C27.55822021 20.18741943 26.49144043 20.18733887 25.39233398 20.18725586 C3.02676572 20.02676572 3.02676572 20.02676572 0 17 C0 11.39 0 5.78 0 0 Z " fill="#F6F6F6" transform="translate(691,1362)"/>
<path d="M0 0 C4.8954942 3.04752619 7.55918434 6.20548734 8.984375 11.90625 C8.984375 15.20625 8.984375 18.50625 8.984375 21.90625 C-4.545625 21.90625 -18.075625 21.90625 -32.015625 21.90625 C-32.015625 9.2035473 -32.015625 9.2035473 -28.015625 3.90625 C-20.93993766 -2.65170412 -8.9751113 -3.25522171 0 0 Z " fill="#F2F2F2" transform="translate(993.015625,393.09375)"/>
<path d="M0 0 C13.53 0 27.06 0 41 0 C41 6.6 41 13.2 41 20 C27.47 20 13.94 20 0 20 C0 13.4 0 6.8 0 0 Z " fill="#F5F5F5" transform="translate(961,436)"/>
<path d="M0 0 C0.66 0.33 1.32 0.66 2 1 C-0.64 3.64 -3.28 6.28 -6 9 C-6 5.06368636 -4.57142871 3.87394974 -2 1 C-1.34 0.67 -0.68 0.34 0 0 Z " fill="#CBCBCB" transform="translate(1259,949)"/>
<path d="M0 0 C0.66 0.33 1.32 0.66 2 1 C-1.96 4.465 -1.96 4.465 -6 8 C-6.66 7.34 -7.32 6.68 -8 6 C-5.36 4.02 -2.72 2.04 0 0 Z " fill="#3D3D3D" transform="translate(902,521)"/>
<path d="M0 0 C0.66 0.33 1.32 0.66 2 1 C-0.31 3.31 -2.62 5.62 -5 8 C-5.33 7.34 -5.66 6.68 -6 6 C-4 4 -2 2 0 0 Z " fill="#D5D5D5" transform="translate(972,928)"/>
</svg>
