<?xml version="1.0" encoding="UTF-8" standalone="no" ?>
<!DOCTYPE svg PUBLIC "-//W3C//DTD SVG 1.1//EN" "http://www.w3.org/Graphics/SVG/1.1/DTD/svg11.dtd">
<svg xmlns="http://www.w3.org/2000/svg" xmlns:xlink="http://www.w3.org/1999/xlink" version="1.1" width="323.9999999999996" height="323.9999999999996" viewBox="0 0 1080 1080" xml:space="preserve">
<desc>Created with Fabric.js 6.5.3</desc>
<defs>
</defs>
<g transform="matrix(2.2889 0 0 2.2889 533.4594 613.9203)"  >
<g style=""   >
		<g transform="matrix(1 0 0 1 0 0)" clip-path="url(#CLIPPATH_0)"  >
<clipPath id="CLIPPATH_0" >
	<path transform="matrix(1 0 0 1 0 0) translate(-400, -400)" id="p.0" d="M 0 0 L 800 0 L 800 800 L 0 800 L 0 0 Z" stroke-linecap="round" />
</clipPath>
<path style="stroke: none; stroke-width: 1; stroke-dasharray: none; stroke-linecap: square; stroke-dashoffset: 0; stroke-linejoin: miter; stroke-miterlimit: 10; fill: rgb(0,0,0); fill-opacity: 0; fill-rule: evenodd; opacity: 1;"  transform=" translate(-400, -400)" d="M 0 0 L 800 0 L 800 800 L 0 800 Z" stroke-linecap="round" />
</g>
		<g transform="matrix(1 0 0 1 0 -34.8461)" clip-path="url(#CLIPPATH_1)"  >
<clipPath id="CLIPPATH_1" >
	<path transform="matrix(1 0 0 1 0 34.8461) translate(-400, -400)" id="p.0" d="M 0 0 L 800 0 L 800 800 L 0 800 L 0 0 Z" stroke-linecap="round" />
</clipPath>
<path style="stroke: none; stroke-width: 1; stroke-dasharray: none; stroke-linecap: square; stroke-dashoffset: 0; stroke-linejoin: miter; stroke-miterlimit: 10; fill: rgb(74,134,232); fill-rule: evenodd; opacity: 1;"  transform=" translate(-400, -365.1539)" d="M 200.8504 179.9413 L 599.1496 179.9413 L 599.1496 550.3665 L 200.8504 550.3665 Z" stroke-linecap="round" />
</g>
		<g transform="matrix(1 0 0 1 0 -34.8461)" clip-path="url(#CLIPPATH_2)"  >
<clipPath id="CLIPPATH_2" >
	<path transform="matrix(1 0 0 1 0 34.8461) translate(-400, -400)" id="p.0" d="M 0 0 L 800 0 L 800 800 L 0 800 L 0 0 Z" stroke-linecap="round" />
</clipPath>
<path style="stroke: rgb(74,134,232); stroke-width: 24; stroke-dasharray: none; stroke-linecap: butt; stroke-dashoffset: 0; stroke-linejoin: round; stroke-miterlimit: 10; fill: none; fill-rule: evenodd; opacity: 1;"  transform=" translate(-400, -365.1539)" d="M 200.8504 179.9413 L 599.1496 179.9413 L 599.1496 550.3665 L 200.8504 550.3665 Z" stroke-linecap="round" />
</g>
		<g transform="matrix(1 0 0 1 -88.6651 -167.3093)" clip-path="url(#CLIPPATH_3)"  >
<clipPath id="CLIPPATH_3" >
	<path transform="matrix(1 0 0 1 88.6651 167.3093) translate(-400, -400)" id="p.0" d="M 0 0 L 800 0 L 800 800 L 0 800 L 0 0 Z" stroke-linecap="round" />
</clipPath>
<path style="stroke: none; stroke-width: 1; stroke-dasharray: none; stroke-linecap: square; stroke-dashoffset: 0; stroke-linejoin: miter; stroke-miterlimit: 10; fill: rgb(0,0,0); fill-opacity: 0; fill-rule: evenodd; opacity: 1;"  transform=" translate(-311.3349, -232.6907)" d="M 222.516 190.675 L 400.1538 190.675 L 400.1538 274.7065 L 222.516 274.7065 Z" stroke-linecap="round" />
</g>
		<g transform="matrix(1 0 0 1 -138.9282 -167.9532)" clip-path="url(#CLIPPATH_4)"  >
<clipPath id="CLIPPATH_4" >
	<path transform="matrix(1 0 0 1 138.9282 167.9532) translate(-400, -400)" id="p.0" d="M 0 0 L 800 0 L 800 800 L 0 800 L 0 0 Z" stroke-linecap="round" />
</clipPath>
<path style="stroke: none; stroke-width: 1; stroke-dasharray: none; stroke-linecap: square; stroke-dashoffset: 0; stroke-linejoin: miter; stroke-miterlimit: 10; fill: rgb(255,255,255); fill-rule: nonzero; opacity: 1;"  transform=" translate(-261.0718, -232.0468)" d="M 233.7816 220.0156 L 233.7816 213.2187 L 258.7972 213.2187 L 258.7972 218.5312 Q 255.7035 221.5781 252.5003 227.2812 Q 249.2972 232.9843 247.6097 239.4062 Q 245.9378 245.8281 245.9691 250.875 L 238.9066 250.875 Q 239.0941 242.9531 242.1722 234.7343 Q 245.266 226.5 250.4222 220.0156 L 233.7816 220.0156 Z M 263.5964 242.0468 L 270.6745 241.2656 Q 270.9402 243.4218 272.0339 244.4687 Q 273.1277 245.5156 274.9245 245.5156 Q 277.1902 245.5156 278.7683 243.4375 Q 280.362 241.3437 280.8152 234.7812 Q 278.0495 237.9843 273.9089 237.9843 Q 269.4089 237.9843 266.1277 234.5156 Q 262.862 231.0312 262.862 225.4531 Q 262.862 219.6562 266.3152 216.1093 Q 269.7683 212.5468 275.112 212.5468 Q 280.9089 212.5468 284.6277 217.0468 Q 288.362 221.5312 288.362 231.8125 Q 288.362 242.2812 284.4714 246.9218 Q 280.5964 251.5468 274.3777 251.5468 Q 269.8933 251.5468 267.1277 249.1718 Q 264.3777 246.7812 263.5964 242.0468 Z M 280.1589 226.0625 Q 280.1589 222.5156 278.5339 220.5625 Q 276.9089 218.6093 274.7683 218.6093 Q 272.737 218.6093 271.3933 220.2187 Q 270.0495 221.8125 270.0495 225.4531 Q 270.0495 229.1562 271.5027 230.8906 Q 272.9714 232.625 275.1589 232.625 Q 277.2683 232.625 278.7058 230.9531 Q 280.1589 229.2812 280.1589 226.0625 Z" stroke-linecap="round" />
</g>
		<g transform="matrix(1 0 0 1 0 -38.261)" clip-path="url(#CLIPPATH_5)"  >
<clipPath id="CLIPPATH_5" >
	<path transform="matrix(1 0 0 1 0 38.261) translate(-400, -400)" id="p.0" d="M 0 0 L 800 0 L 800 800 L 0 800 L 0 0 Z" stroke-linecap="round" />
</clipPath>
<path style="stroke: none; stroke-width: 1; stroke-dasharray: none; stroke-linecap: square; stroke-dashoffset: 0; stroke-linejoin: miter; stroke-miterlimit: 10; fill: rgb(0,0,0); fill-opacity: 0; fill-rule: evenodd; opacity: 1;"  transform=" translate(-400, -361.739)" d="M 283.7323 249.5342 L 516.2677 249.5342 L 516.2677 473.9437 L 283.7323 473.9437 Z" stroke-linecap="round" />
</g>
		<g transform="matrix(1 0 0 1 -6.2521 -44.1939)" clip-path="url(#CLIPPATH_6)"  >
<clipPath id="CLIPPATH_6" >
	<path transform="matrix(1 0 0 1 6.2521 44.1939) translate(-400, -400)" id="p.0" d="M 0 0 L 800 0 L 800 800 L 0 800 L 0 0 Z" stroke-linecap="round" />
</clipPath>
<path style="stroke: none; stroke-width: 1; stroke-dasharray: none; stroke-linecap: square; stroke-dashoffset: 0; stroke-linejoin: miter; stroke-miterlimit: 10; fill: rgb(255,255,255); fill-rule: nonzero; opacity: 1;"  transform=" translate(-393.7479, -355.8061)" d="M 407.6541 412.1343 L 382.4979 412.1343 L 372.4979 386.1186 L 326.7166 386.1186 L 317.2635 412.1343 L 292.7323 412.1343 L 337.3416 297.603 L 361.7948 297.603 L 407.6541 412.1343 Z M 365.076 366.8218 L 349.2948 324.3218 L 333.826 366.8218 L 365.076 366.8218 Z M 474.3729 412.1343 L 474.3729 399.7124 Q 469.8416 406.353 462.451 410.1811 Q 455.076 414.0093 446.8729 414.0093 Q 438.5135 414.0093 431.8729 410.3374 Q 425.2323 406.6655 422.2635 400.0249 Q 419.2948 393.3843 419.2948 381.6655 L 419.2948 329.1655 L 441.2479 329.1655 L 441.2479 367.2905 Q 441.2479 384.7905 442.451 388.7436 Q 443.6698 392.6811 446.8729 394.9936 Q 450.076 397.2905 454.9979 397.2905 Q 460.6229 397.2905 465.076 394.2124 Q 469.5291 391.1186 471.1698 386.5561 Q 472.8104 381.978 472.8104 364.1655 L 472.8104 329.1655 L 494.7635 329.1655 L 494.7635 412.1343 L 474.3729 412.1343 Z" stroke-linecap="round" />
</g>
		<g transform="matrix(1 0 0 1 0 74.9479)" clip-path="url(#CLIPPATH_7)"  >
<clipPath id="CLIPPATH_7" >
	<path transform="matrix(1 0 0 1 0 -74.9479) translate(-400, -400)" id="p.0" d="M 0 0 L 800 0 L 800 800 L 0 800 L 0 0 Z" stroke-linecap="round" />
</clipPath>
<path style="stroke: none; stroke-width: 1; stroke-dasharray: none; stroke-linecap: square; stroke-dashoffset: 0; stroke-linejoin: miter; stroke-miterlimit: 10; fill: rgb(0,0,0); fill-opacity: 0; fill-rule: evenodd; opacity: 1;"  transform=" translate(-400, -474.9479)" d="M 341.0551 453.2314 L 458.9449 453.2314 L 458.9449 496.6645 L 341.0551 496.6645 Z" stroke-linecap="round" />
</g>
		<g transform="matrix(1 0 0 1 -4.7085 86.3111)" clip-path="url(#CLIPPATH_8)"  >
<clipPath id="CLIPPATH_8" >
	<path transform="matrix(1 0 0 1 4.7085 -86.3111) translate(-400, -400)" id="p.0" d="M 0 0 L 800 0 L 800 800 L 0 800 L 0 0 Z" stroke-linecap="round" />
</clipPath>
<path style="stroke: none; stroke-width: 1; stroke-dasharray: none; stroke-linecap: square; stroke-dashoffset: 0; stroke-linejoin: miter; stroke-miterlimit: 10; fill: rgb(255,255,255); fill-rule: nonzero; opacity: 1;"  transform=" translate(-395.2915, -486.3111)" d="M 366.2895 490.1001 L 366.2895 485.272 L 378.7426 485.272 L 378.7426 496.6783 Q 376.9301 498.4439 373.477 499.7876 Q 370.0395 501.1158 366.5082 501.1158 Q 362.0082 501.1158 358.6645 499.2408 Q 355.3364 497.3501 353.6489 493.8501 Q 351.977 490.3345 351.977 486.2095 Q 351.977 481.7408 353.852 478.272 Q 355.727 474.7876 359.3364 472.9283 Q 362.0864 471.5064 366.1957 471.5064 Q 371.5239 471.5064 374.5239 473.7408 Q 377.5239 475.9751 378.3832 479.9283 L 372.6332 481.0064 Q 372.0239 478.897 370.352 477.6783 Q 368.6957 476.4439 366.1957 476.4439 Q 362.3989 476.4439 360.1645 478.8501 Q 357.9301 481.2564 357.9301 485.9751 Q 357.9301 491.0845 360.1957 493.6314 Q 362.4614 496.1783 366.1332 496.1783 Q 367.9457 496.1783 369.7739 495.4751 Q 371.602 494.7564 372.9145 493.7408 L 372.9145 490.1001 L 366.2895 490.1001 Z M 382.7778 489.9595 Q 382.7778 487.2251 384.1215 484.6783 Q 385.4653 482.1158 387.934 480.772 Q 390.4028 479.4126 393.4497 479.4126 Q 398.1684 479.4126 401.1684 482.4751 Q 404.184 485.5376 404.184 490.1939 Q 404.184 494.9126 401.1372 498.0064 Q 398.1059 501.1001 393.4965 501.1001 Q 390.6372 501.1001 388.0434 499.8189 Q 385.4653 498.522 384.1215 496.0376 Q 382.7778 493.5376 382.7778 489.9595 Z M 388.4028 490.2564 Q 388.4028 493.3501 389.8559 494.9908 Q 391.3247 496.6314 393.4809 496.6314 Q 395.6215 496.6314 397.0747 494.9908 Q 398.5278 493.3501 398.5278 490.2251 Q 398.5278 487.1783 397.0747 485.5376 Q 395.6215 483.897 393.4809 483.897 Q 391.3247 483.897 389.8559 485.5376 Q 388.4028 487.1783 388.4028 490.2564 Z M 408.477 500.6314 L 408.477 471.9908 L 413.9614 471.9908 L 413.9614 500.6314 L 408.477 500.6314 Z M 438.6059 500.6314 L 433.5122 500.6314 L 433.5122 497.5845 Q 432.2465 499.3658 430.5122 500.2408 Q 428.7934 501.1001 427.0278 501.1001 Q 423.4497 501.1001 420.9028 498.2251 Q 418.3559 495.3345 418.3559 490.1783 Q 418.3559 484.9126 420.8403 482.1626 Q 423.3247 479.4126 427.1059 479.4126 Q 430.5903 479.4126 433.1215 482.3033 L 433.1215 471.9908 L 438.6059 471.9908 L 438.6059 500.6314 Z M 423.9653 489.8033 Q 423.9653 493.1314 424.8872 494.6158 Q 426.2153 496.7564 428.5903 496.7564 Q 430.4809 496.7564 431.809 495.147 Q 433.1372 493.5376 433.1372 490.3345 Q 433.1372 486.7564 431.8403 485.1939 Q 430.559 483.6158 428.559 483.6158 Q 426.6059 483.6158 425.2778 485.1783 Q 423.9653 486.7251 423.9653 489.8033 Z" stroke-linecap="round" />
</g>
</g>
</g>
</svg>